<svg width="471" height="380" viewBox="0 0 471 380" fill="none" xmlns="http://www.w3.org/2000/svg">
<path fill-rule="evenodd" clip-rule="evenodd" d="M215.349 42.0757L215.235 42.0181L215.108 42.0364L215.167 42.4358C215.108 42.0364 215.108 42.0364 215.108 42.0364H215.107L215.106 42.0369L215.099 42.038L215.074 42.0418C215.051 42.045 215.018 42.0504 214.976 42.0568C214.89 42.0703 214.765 42.0907 214.606 42.1182C214.288 42.1726 213.831 42.2555 213.278 42.369C212.171 42.5957 210.672 42.9456 209.106 43.436C207.542 43.9264 205.898 44.5616 204.507 45.3636C203.126 46.1603 201.943 47.1513 201.376 48.3771C200.308 50.6859 199.8 54.595 200.075 57.9169C200.213 59.5803 200.55 61.1392 201.14 62.2955C201.732 63.4534 202.625 64.2851 203.88 64.2851C205.112 64.2851 206.276 63.3764 207.334 62.1878C208.411 60.9777 209.474 59.3655 210.49 57.7543C210.712 57.4028 210.932 57.0518 211.149 56.7046C211.935 55.4455 212.692 54.2349 213.418 53.2358C213.88 52.6001 214.32 52.0645 214.734 51.6656C215.154 51.2613 215.518 51.0282 215.825 50.9475C217.464 50.5157 219.754 49.7018 221.623 49.001C222.561 48.6494 223.396 48.3248 223.998 48.088C224.298 47.9696 224.54 47.8732 224.707 47.8059C224.791 47.7725 224.856 47.7467 224.9 47.7289L224.95 47.7085L224.963 47.7031L224.966 47.702L224.966 47.7015H224.967C224.967 47.7015 224.967 47.7015 224.815 47.3274L224.967 47.7015L225.788 47.3683L224.998 46.9672L215.349 42.0757ZM214.742 42.9138C214.897 42.8874 215.018 42.8675 215.1 42.8546L223.836 47.2838L223.702 47.3365C223.103 47.5723 222.272 47.8953 221.34 48.2446C219.471 48.9455 217.215 49.7465 215.619 50.1669C215.117 50.2988 214.633 50.6422 214.175 51.0831C213.711 51.5294 213.24 52.1081 212.766 52.761C212.022 53.7854 211.244 55.0289 210.455 56.2912V56.2918C210.24 56.6357 210.024 56.9808 209.808 57.3232C208.79 58.937 207.759 60.4959 206.731 61.6511C205.684 62.8273 204.731 63.4776 203.88 63.4776C203.053 63.4776 202.381 62.9495 201.859 61.9278C201.337 60.9045 201.013 59.4645 200.879 57.8507C200.612 54.6182 201.117 50.8597 202.109 48.7162C202.571 47.7149 203.582 46.8289 204.91 46.0629C206.23 45.3017 207.812 44.6875 209.347 44.2068C210.88 43.7266 212.351 43.3832 213.44 43.1598C213.984 43.0484 214.431 42.9671 214.742 42.9138ZM381.328 113.389C379.764 117.246 378.13 121.274 377.662 125.063C383.541 128.668 386.81 133.937 390.301 139.563L390.303 139.565C390.705 140.215 391.111 140.869 391.524 141.525C393.869 145.253 395.743 149.086 397.631 152.949C398.836 155.414 400.047 157.891 401.389 160.359C408.092 172.688 419.931 210.63 421.702 216.749C423.102 221.583 425.1 226.369 427.067 231.079C427.535 232.2 428.002 233.317 428.457 234.429C428.774 235.2 428.784 236.159 428.793 237.084C428.809 238.601 428.823 240.024 430.193 240.367C431.455 240.682 434.753 239.099 437.536 237.763H437.537C439.165 236.981 440.618 236.284 441.383 236.101C447.699 234.592 454.556 235.358 461.018 236.08L461.206 236.101C461.606 233.741 460.699 227.939 459.855 225.64C459.413 224.437 458.98 223.107 458.533 221.733C457.469 218.466 456.325 214.953 454.797 212.319C453.44 209.982 449.766 202.774 445.389 194.186L445.388 194.185C438.551 180.77 429.997 163.988 425.876 157.142C423.222 152.731 420.518 148.679 417.882 144.729C411.914 135.785 406.295 127.364 402.389 116.496C399.376 108.114 397.056 99.1328 394.854 90.4957C394.03 87.2615 393.372 84.0667 392.716 80.8826V80.8821C391.78 76.3415 390.849 71.8235 389.449 67.2447C389.071 67.4977 388.42 67.6419 387.748 67.7905C386.869 67.9848 385.955 68.1872 385.567 68.6523C384.708 69.6864 384.71 69.6875 384.936 69.7962C385.095 69.8727 385.365 70.0029 385.523 70.5816C385.812 71.6388 386.316 72.5846 386.825 73.5417C387.49 74.7917 388.166 76.0605 388.388 77.6216C388.893 81.1604 388.179 84.6061 387.464 88.0534C387.109 89.769 386.754 91.4851 386.548 93.213C385.898 98.6887 385.062 103.175 383.287 108.313C382.724 109.945 382.033 111.65 381.328 113.389ZM242.722 152.987C238.693 154.47 234.721 155.931 230.857 157.409C230.857 157.409 241.985 169.155 249.279 172.78C249.983 173.13 250.775 173.544 251.623 173.988C254.906 175.706 259.028 177.863 262.114 178.402C266.009 179.083 280.358 180.64 284.041 178.994C285.626 178.287 289.742 175.072 291.095 173.988C291.816 173.411 292.243 172.291 292.668 171.178C293.033 170.222 293.395 169.271 293.94 168.674C298.777 163.367 304.127 159.134 310.473 155.931L310.79 155.772C313.52 154.396 316.992 152.646 318.932 150.29C321.186 147.553 321.77 143.538 321.992 140.139C322.225 136.547 322.246 132.928 322.266 129.307V129.306C322.298 123.706 322.331 118.1 323.148 112.581C324.368 104.347 326.818 95.5143 330.516 88.0491C332.419 84.2088 334.764 80.5833 337.437 77.2377C338.089 76.4222 338.859 75.7542 339.625 75.091H339.625C340.26 74.5408 340.891 73.9939 341.449 73.3684C342.717 71.943 342.71 71.4251 342.688 69.6945C342.685 69.4436 342.681 69.1675 342.681 68.8596C336.923 72.8769 330.503 74.5656 323.809 76.3264C323.317 76.4561 322.823 76.5864 322.327 76.7172C321.2 77.0165 320.061 77.298 318.92 77.5796C312.619 79.1374 306.255 80.7109 301.423 85.3096C298.368 88.2176 296.795 89.1014 292.663 89.5181C291.315 89.6538 289.963 89.7673 288.61 89.8815H288.61C285.713 90.1248 282.813 90.3681 279.941 90.8305C272.375 92.0481 265.11 94.3962 257.842 96.7448L257.383 96.8929C242.388 101.738 229.28 109.839 216.281 118.395C211.367 121.629 206.923 125.461 202.483 129.29H202.483C201.658 130.001 200.835 130.712 200.008 131.419C199.203 132.107 198.334 132.833 197.426 133.594L197.425 133.595C191.117 138.874 182.848 145.795 180.067 152.801C181.009 152.716 181.979 152.621 182.97 152.523C191.194 151.715 200.863 150.764 208.453 154.186C209.096 147.079 213.469 138.661 218.173 133.556C222.41 128.958 227.611 124.305 232.834 120.661C242.372 114.008 254.253 111.811 265.735 109.687C268.992 109.085 272.217 108.489 275.347 107.798C276.458 107.553 277.567 107.314 278.672 107.075C285.218 105.663 291.665 104.271 297.909 101.797C299.869 101.021 304.733 101.798 304.318 102.812C303.495 104.817 303.038 106.946 302.582 109.069L302.57 109.126C301.722 113.083 301.006 117.066 300.291 121.049C299.547 125.189 298.803 129.33 297.909 133.442C297.636 134.705 294.968 130.472 294.861 128.941C279.553 139.437 260.595 146.412 242.722 152.987ZM352.692 210.147C348.077 202.128 341.318 195.186 334.623 188.8C336.369 188.117 338.031 184.721 338.984 182.775C339.057 182.625 339.126 182.484 339.191 182.354C340.441 179.827 341.894 177.268 343.326 174.845C344.893 172.194 348.165 164.83 351.026 158.39C352.954 154.052 354.695 150.132 355.605 148.354C358.278 143.125 376.115 90.3293 375.717 84.8574C375.709 84.7374 375.7 84.6206 375.692 84.5076C375.529 82.3199 375.461 81.415 376.697 79.6547C377.736 78.1733 379.497 76.2618 381.154 74.4633C382.209 73.3189 383.221 72.2197 383.979 71.3067C384.788 75.7079 383.116 81.2966 381.605 86.3464C381 88.3704 380.42 90.3078 380.036 92.0476C379.168 95.9891 378.193 99.8735 377.218 103.762C376.617 106.156 376.017 108.552 375.44 110.963C375.008 112.766 374.349 114.445 373.689 116.123V116.123C373.201 117.365 372.713 118.606 372.317 119.898C371.807 121.569 371.431 123.275 371.054 124.983V124.984C370.662 126.762 370.269 128.544 369.724 130.289C369.333 131.539 368.916 132.778 368.499 134.015L368.499 134.018C366.642 139.534 364.807 144.986 365.489 150.918C366.216 157.233 367.085 164.041 369.155 170.039C371.611 177.156 373.92 183.877 374.473 191.462C374.998 198.676 373.247 206.185 371.356 213.098C370.686 215.546 365.632 233.295 364.1 233.04C363.216 226.939 359.418 220.934 355.885 215.347L355.884 215.346C354.759 213.567 353.661 211.831 352.692 210.147Z" fill="#75A342"/>
<path fill-rule="evenodd" clip-rule="evenodd" d="M179.938 199.216C180.544 199.424 180.768 199.031 180.608 198.038C180.002 197.768 179.778 198.16 179.938 199.216ZM390.289 48.0457C389.328 48.134 389.871 49.083 390.441 49.4383C390.39 48.9743 390.34 48.5102 390.289 48.0457ZM334.315 187.612C334.887 187.173 334.683 186.801 333.703 186.5C333.147 186.953 333.351 187.325 334.315 187.612ZM117.351 185.228C114.238 184.728 111.827 180.007 109.26 181.001C106.048 182.245 103.108 187.861 100.913 190.389C102.605 191.749 104.478 192.972 106.269 194.198C108.117 195.462 107.643 195.909 109.506 194.407C110.862 193.314 111.948 191.345 113.073 190.003C114.423 188.388 116.14 186.953 117.351 185.228ZM189.073 364.058C189.625 364.105 189.998 351.661 190.445 349.949C191.438 346.148 193.169 342.321 195.085 338.903C195.903 337.444 197.364 335.562 197.985 334.065C198.941 331.759 197.394 330.183 196.958 327.535C196.028 321.888 197.26 316.898 199.237 311.662C195.598 310.834 192.088 309.471 188.387 308.902C188.387 313.899 187.893 318.087 185.835 322.671C185.319 323.819 184.282 324.751 184.726 326.156C184.871 326.613 186.142 326.91 186.447 327.331C188.161 329.7 188.437 331.583 188.53 334.537C188.839 344.461 187.755 354.203 189.073 364.058ZM163.301 192.387C165.311 194.088 171.733 182.081 173.941 182.15C178.636 182.296 171.966 194.101 171.558 195.545C173.436 194.875 175.212 190.621 176.216 188.971C177.077 187.558 180.242 180.618 182.05 180.19C185.577 179.355 184.012 185.772 183.519 187.277C182.409 190.662 181.324 194.012 180.356 197.442C182.415 196.317 183.944 189.583 184.869 187.383C186.146 184.341 187.17 181.006 189.162 178.346C190.522 176.531 192.76 173.971 195.215 173.844C198.199 173.688 199.32 176.871 202.009 177.466C202.368 170.684 201.701 163.867 202.493 157.105C197.187 157.216 191.851 157.462 186.611 158.366C183.66 158.876 181.701 158.856 180.247 161.618C179.121 163.759 178.241 165.995 177.177 168.167C173.087 176.517 168.714 184.809 163.301 192.387ZM96.1596 167.076C92.285 171.055 88.7817 175.17 85.1315 179.345C81.4711 183.528 76.3813 186.212 72.9237 190.533C69.7647 194.482 67.3932 199.027 64.3816 203.104C61.0478 207.618 58.2885 212.673 55.4496 217.516C58.3756 218.052 59.0971 218.112 60.9924 215.937C62.5617 214.136 63.8463 211.968 65.4302 210.152C69.1126 205.929 72.6628 202.49 77.2641 199.181C81.7616 195.948 87.5551 193.118 92.9344 191.473C95.032 190.832 95.8029 190.994 96.9644 189.074C97.7977 187.699 98.1017 185.976 98.9474 184.567C100.773 181.526 103.657 179.818 106.524 177.89C103.285 174.072 99.4014 170.953 96.1596 167.076ZM354.925 51.2115C353.863 52.0071 353.72 54.9957 353.232 56.2371C352.335 58.5173 351.065 60.6571 349.95 62.8345C347.995 66.6576 346.372 70.9371 346.443 75.3221C346.517 79.8299 350.009 82.4181 354.205 83.2352C358.816 84.1337 362.355 82.3196 366.407 80.3795C370.429 78.4535 373.747 75.4104 376.946 72.3372C379.477 69.9052 381.091 65.9443 383.961 64.5797C386.685 63.284 390.03 62.138 390.85 58.2929C391.41 55.6665 390.343 55.9744 388.042 56.5348C385.592 57.1296 383.818 58.7052 381.545 59.5514C382.81 56.6661 383.114 54.2976 381.557 51.4704C380.66 49.842 378.978 47.1473 376.939 47.0827C375.596 47.0396 373.991 48.5092 372.754 48.9818C371.238 49.5599 369.559 49.8259 368 50.256C363.377 51.5339 359.672 51.7794 354.925 51.2115ZM364.033 232.939C365.584 233.197 370.577 215.506 371.263 212.995C373.15 206.082 374.892 198.567 374.369 191.356C373.818 183.752 371.473 177.074 369.07 169.93C367.04 163.902 366.155 157.14 365.417 150.808C364.57 143.536 367.506 137.003 369.637 130.177C370.621 127.024 371.138 123.796 372.003 120.625C372.912 117.288 374.519 114.262 375.333 110.849C376.842 104.519 378.51 98.2997 379.913 91.931C381.247 85.8729 384.893 78.6618 383.765 72.509C381.867 74.8059 379.573 76.8089 377.697 79.0655C375.785 81.3678 376.45 81.5482 376.682 84.7403C377.063 90.0114 375.956 96.1341 374.729 101.254C372.171 111.931 367.648 121.627 364.348 131.984C362.652 137.31 361.977 143.314 359.577 148.341C357.426 152.848 354.448 156.854 352.167 161.209C349.665 165.983 346.737 170.49 344.001 175.132C342.706 177.332 341.359 179.486 340.208 181.767C339.24 183.69 338.167 188.327 336.269 189.072C342.949 195.466 348.062 202.015 352.666 210.044C356.672 217.033 362.869 224.876 364.033 232.939ZM377.931 125.002C384.236 128.87 387.395 134.553 391.265 140.652C395.125 146.737 398.739 152.966 402.175 159.299C409.01 171.899 414.039 184.413 417.816 198.269C419.519 204.518 421.999 210.586 423.769 216.704C425.404 222.357 425.936 228.109 428.289 233.527C428.939 235.022 429.442 238.33 431.165 238.858C433.196 239.481 438.645 236.693 440.699 236.179C447.369 234.513 454.326 234.178 461.166 234.942C461.566 232.585 458.861 227.934 458.018 225.636C456.625 221.84 455.372 217.79 453.505 214.2C450.287 208.018 446.568 202.005 442.846 196.179C438.902 190.006 435.659 183.385 431.626 177.366C429.765 174.588 427.104 170.84 425.88 167.752C425.275 166.226 425.086 165.637 424.357 164.343C423.72 163.212 422.977 162.096 422.304 160.978C413.825 146.88 407.562 132.572 402.111 117.204C399.127 108.793 396.633 100.325 394.271 91.7157C392.051 83.6255 391.631 75.2818 389.165 67.2185C387.715 68.1907 385.282 68.0545 385.327 69.9822C385.335 70.3606 387.37 73.0596 387.592 73.5839C388.043 74.6482 388.319 75.7722 388.525 76.9058C389.526 82.4154 387.516 87.7602 386.806 93.1712C386.119 98.4079 385.501 102.695 383.716 107.609C381.784 112.929 378.621 119.425 377.931 125.002ZM232.747 157.557C238.909 162.918 244.618 168.935 251.913 172.557C255.339 174.258 258.062 176.669 261.946 177.347C265.843 178.027 269.865 177.642 273.776 177.364C277.775 177.08 281.393 177.033 285.076 175.388C286.661 174.681 289.07 173.997 290.424 172.915C291.764 171.842 292.608 170.104 293.788 168.812C298.625 163.51 303.976 159.28 310.321 156.081C317.393 152.513 321.307 148.463 321.838 140.302C322.432 131.164 321.649 121.849 322.995 112.768C324.218 104.529 326.661 95.7223 330.363 88.2587C332.266 84.4216 334.611 80.7994 337.284 77.4565C338.476 75.966 340.066 74.969 341.295 73.5904C342.746 71.9604 342.527 71.5185 342.527 69.0859C336.346 73.3939 329.402 75.0228 322.174 76.9365C314.845 78.8782 306.957 80.1136 301.27 85.5214C298.216 88.4266 296.643 89.31 292.511 89.7256C288.276 90.1524 284.002 90.3597 279.789 91.0369C272.062 92.2804 264.655 94.6984 257.232 97.0939C242.238 101.935 229.13 110.028 216.131 118.577C210.302 122.41 205.143 127.077 199.858 131.589C193.466 137.047 184.87 144.36 181.689 152.368C190.449 151.576 199.343 149.045 207.844 152.875C208.49 145.756 213.315 138.83 218.023 133.724C222.198 129.198 227.303 124.673 232.411 121.032C244.635 112.317 260.937 110.058 275.167 106.922C282.859 105.226 290.03 103.904 297.334 101.012C299.185 100.28 304.58 97.0034 305.599 98.9553C306.25 100.203 304.58 101.995 304.165 103.008C303.447 104.757 303.037 106.575 302.621 108.423C300.744 116.759 299.574 125.254 297.757 133.611C297.49 134.843 297.134 140.409 294.923 139.652C293.449 139.148 294.816 130.649 294.709 129.113C275.948 141.967 253.756 149.531 232.747 157.557ZM253.834 301.044C249.665 301.223 245.419 303.468 241.377 304.489C235.929 305.867 230.211 307.269 225.168 309.738C222.483 311.052 222.458 311.821 223.193 314.817C223.77 317.172 224.437 319.453 224.922 321.85C226.128 327.799 227.476 333.674 228.976 339.553C244.504 326.589 264.326 319.257 283.696 314.262C286.437 313.555 289.228 313.337 292.007 312.854C294.44 312.431 297.212 312.733 299.52 312.254C301.002 311.946 302.342 310.947 303.857 310.596C307.135 309.836 311.04 309.775 314.195 308.608C318.415 307.047 323.136 304.983 327.312 302.857C331.87 300.533 335.538 298.837 336.466 293.84C337.202 289.878 339.048 286.176 339.622 282.286C340.368 277.214 339.441 272.707 339.129 267.637C338.405 255.904 336.699 244.045 333.717 232.601C330.858 221.629 328.817 210.396 326.847 199.272C326.463 197.104 325.696 195.107 325.193 192.976C324.355 189.433 322.69 190.341 319.474 190.55C313.459 190.938 307.098 188.537 302.102 185.297C299.743 183.767 296.762 180.27 294.065 179.519C291.662 178.848 289.209 182.095 286.915 183.184C281.434 185.783 274.713 186.487 268.731 186.897C255.681 187.791 245.792 179.294 236.899 170.651C230.93 177.33 224.461 183.68 217.53 189.355C211.819 194.031 206.964 200.104 202.21 205.672C197.744 210.905 194.132 219.043 188.066 222.708C184.529 224.847 181.892 223.494 178.477 221.344C175.765 219.637 172.777 218.706 170.047 217.131C157.446 209.855 145.546 201.639 133.234 193.926C130.541 192.239 126.309 188.271 123.14 187.986C120.793 187.775 120.978 188.362 119.62 190.306C118.304 192.191 116.97 194.063 115.664 195.954C110.545 203.368 105.088 211.02 100.94 219.026C109.971 216.872 118.51 216.54 127.398 217.813C135.575 218.984 146.014 220.398 153.252 224.82C156.344 226.71 159.381 228.831 162.465 230.978C166.336 233.674 169.343 237.443 173.629 239.476C177.325 241.229 181.325 242.022 185.167 243.329C189.484 244.795 195.608 247.529 200.193 246.342C204.1 245.33 207.371 241.863 210.312 239.475C214.139 236.369 218.788 234.245 222.66 231.349C229.522 226.218 236.685 221.833 244.065 217.247C252.877 211.771 261.331 205.476 270.478 200.655C272.276 199.706 274.055 199.049 275.729 197.916C277.302 196.85 278.436 194.901 280.329 196.291C282.013 197.524 281.277 199.798 280.768 201.381C280.291 202.865 279.849 203.34 280.157 204.635C280.443 205.84 282.296 207.689 282.933 208.866C285.939 214.429 288.086 220.4 290.966 226.026C293.769 231.497 296.931 236.761 299.538 242.336C304.682 253.34 311.866 263.091 316.421 274.448C314.323 275.308 314.062 273.538 312.434 273.37C310.655 273.186 311.299 273.525 309.533 274.8C307.164 276.509 304.623 277.59 302.081 278.924C296.421 281.892 290.626 285.387 284.519 287.438C274.029 290.963 264.361 297.193 253.834 301.044ZM434.337 249.668C433.975 252.273 433.509 254.857 433.13 257.457C432.862 259.295 431.834 261.957 432.068 263.776C434.77 262.498 437.679 258.219 439.765 262.9C441.008 265.688 439.45 271.223 439.083 274.223C442.137 273.604 441.447 266.097 446.327 268.52C450.08 270.382 447.454 279.848 450.389 280.771C452.415 277.573 452.081 270.319 452.744 266.514C453.055 264.729 452.61 262.333 454.697 262.217C456.505 262.116 457.936 264.738 458.791 265.936C459.606 261.586 461.805 257.726 460.845 253.721C460.252 251.245 459.645 248.765 459.01 246.298C458.636 244.845 458.239 240.387 456.976 239.388C454.627 237.53 446.043 240.839 443.446 241.585C441.079 242.266 438.06 242.912 435.88 244.059C433.591 245.266 434.293 247.003 434.337 249.668ZM358.271 99.9641C361.786 99.5792 364.834 97.4481 367.531 95.2254C371.952 91.5838 372.624 88.7313 373.464 83.12C367.793 85.8853 363.605 88.1726 357.207 88.2878C349.884 88.4196 346.284 84.1234 342.916 78.2118C342.013 79.5893 340.724 81.0508 340.064 82.5607C339.231 84.4679 339.337 84.0717 339.578 86.0075C339.951 88.9962 341.439 92.8262 342.951 95.4483C346.215 101.111 352.633 101.877 358.271 99.9641ZM213.518 327.449H220.167C219.785 325.012 219.404 322.575 219.023 320.137C218.69 318.01 219.242 315.018 217.153 314.648C215.423 314.341 213.706 316.259 211.945 316.088C209.936 315.892 208.781 314.45 206.452 315.03C203.137 315.857 203.8 319.489 203.75 322.537C203.731 323.734 203.271 325.535 203.645 326.699C204.296 328.729 203.752 327.919 205.77 328.117C208.138 328.349 211.078 327.581 213.518 327.449ZM378.35 33.8976C380.786 34.2853 387.094 39.4716 388.875 38.2345C391.292 36.5558 384.342 31.9177 382.918 31.1876C375.96 27.6192 362.943 30.4387 358.265 36.9539C361.331 37.2521 365.077 34.4425 368.222 33.9807C371.591 33.4861 374.965 33.906 378.35 33.8976ZM376.652 168.123C378.635 176.118 382.196 184.685 382.175 192.996C382.153 201.635 380.246 209.475 376.751 217.385C375.004 221.343 373.439 225.343 371.452 229.191C370.534 230.973 369.687 233.156 368.415 234.71C366.847 236.627 366.36 236.486 364.495 234.963C363.661 237.097 362.787 239.296 359.953 237.862C357.911 236.829 357.955 234.269 357.287 232.366C355.496 227.264 351.668 222.863 348.965 218.216C346.194 213.451 343.855 208.325 340.789 203.744C339.313 201.538 337.554 199.485 335.977 197.343C334.782 195.721 332.957 191.967 331.296 191.015C331.076 193.154 333.357 196.27 334.2 198.36C335.306 201.104 336.256 203.925 337.053 206.774C338.605 212.305 339.542 218.086 340.722 223.709C342.833 233.762 345.323 243.75 346.736 253.953C348.05 263.446 348.4 273.254 347.401 282.788C346.973 286.884 344.574 290.346 342.956 294.076C340.757 299.147 338.085 302.308 333.668 305.905C325.647 312.436 316.766 316.345 306.998 319.26C305.175 319.804 303.481 319.568 301.772 319.937C299.854 320.349 298.327 321.328 296.242 321.654C290.861 322.496 285.387 323.486 280.192 325.012C276.097 326.216 272.052 327.469 268.001 328.72C264.914 329.672 261.11 330.558 258.138 331.963C250.807 335.428 243.93 339.493 237.127 343.8C235.133 345.064 233.662 345.828 232.191 347.697C230.6 349.719 230.83 351.149 229.963 353.455C229.154 355.607 227.741 356.819 225.822 355.03C224.028 353.358 224.737 349.829 224.591 347.759C224.371 344.639 222.523 332.708 220.377 331.71C218.827 330.99 214.295 332.539 212.416 332.745C209.98 333.014 207.786 333.007 205.36 332.674C206.162 336.015 203.234 340.532 202.004 343.469C199.907 348.477 198.275 353.357 197.405 358.688C196.813 362.322 197.003 365.972 196.445 369.648C195.87 373.444 196.742 379.394 191.591 379.964C183.413 380.868 181.328 364.498 180.398 359.009C178.939 350.4 180.094 341.917 180.954 333.262C181.024 332.561 181.38 329.477 181.064 328.918C180.805 328.462 178.506 327.675 178.21 327.464C175.618 325.62 176.673 324.64 177.445 321.895C178.919 316.649 178.491 310.093 182.033 305.505C184.743 301.995 190.826 304.127 194.331 305.074C196.943 305.781 199.523 306.731 202.061 307.672C203.816 308.323 205.776 310.268 207.313 310.582C210.378 311.208 212.636 307.292 214.922 305.905C219.048 303.402 223.35 301.102 227.795 299.425C235.962 296.342 244.413 294.572 252.792 291.977C257.922 290.389 262.988 288.653 267.862 286.359C271.462 284.664 275.094 282.277 278.989 281.129C283.896 279.682 288.876 277.671 293.666 275.672C298.76 273.545 304.334 272.182 309.563 270.459C298.678 254.515 289.377 237.461 281.901 219.647C281.039 217.592 280.211 215.527 279.448 213.434C279.059 212.369 278.104 207.592 277.092 206.918C275.253 205.694 267.862 211.241 265.803 212.592C258.342 217.482 251.186 222.828 243.413 227.273C236.681 231.123 230.33 235.587 223.892 239.716C220.347 241.99 217.05 244.889 213.445 247.186C209.849 249.475 205.619 253.74 201.359 254.728C199.77 255.098 197.077 254.647 195.471 254.516C193.207 254.332 190.679 254.129 188.477 253.499C184.16 252.266 179.598 250.865 175.379 249.33C167.795 246.57 161.916 239.762 155.079 235.559C146.839 230.492 137.504 229.23 128.294 226.429C118.217 223.366 107.04 223.032 96.4043 223.828C96.4043 214.118 101.089 206.835 106.2 198.866C102.518 196.447 100.965 194.94 96.8444 197.178C93.7876 198.838 90.9691 200.331 88.1334 202.186C85.0535 204.203 81.7751 205.749 78.7075 207.96C75.3736 210.363 72.4573 212.912 69.3784 215.602C67.0629 217.624 64.4263 219.463 62.0043 221.291C59.6124 223.097 57.177 222.835 54.1186 221.605C53.2164 221.242 50.3995 219.974 49.9229 219.363C48.9621 218.133 49.6727 217.274 50.4711 215.651C52.3169 211.895 54.6754 208.083 57.0845 204.648C59.2348 201.583 62.0258 199.024 64.2778 196.034C66.4157 193.199 67.9441 189.905 70.4205 187.334C73.19 184.459 76.4743 182.151 79.0895 179.088C80.393 177.56 81.8789 175.931 81.9822 174.128C82.0613 172.745 80.5221 171.405 80.5076 170.412C80.4748 168.082 84.4644 165.713 86.13 163.999C88.5751 161.481 90.9907 159.306 94.7678 160.386C97.5406 161.179 101.713 164.676 103.778 166.708C106.378 169.267 108.533 172.227 111.214 174.758C112.721 176.181 114.328 177.48 115.886 178.844C116.807 179.65 118.267 181.964 119.286 182.435C120.196 182.858 121.086 182.458 122.359 182.424C121.786 182.438 124.689 182.928 124.534 182.886C125.908 183.254 127.264 183.653 128.619 184.091C134.185 185.891 139.314 188.927 144.336 191.95C157.093 199.629 169.064 207.813 181.559 215.998C185.26 218.421 186.278 218.249 189.119 214.779C191.77 211.542 193.969 207.944 196.46 204.588C200.565 199.058 205.192 193.679 210.039 188.765C215.028 183.708 220.778 179.474 226.11 174.794C227.591 173.495 233.694 169.107 233.308 167.462C233.091 166.533 231.118 164.964 230.493 164.013C229.561 162.595 228.594 160.995 227.906 159.431C223.856 150.221 234.368 149.59 240.518 146.744C248.027 143.27 255.461 139.432 263.136 136.329C266.99 134.772 270.849 133.349 274.739 131.906C278.321 130.576 281.582 128.421 285.107 126.954C287.703 125.873 293.343 125.461 295.073 123.162C296.094 121.806 295.654 117.523 295.833 115.943C296.129 113.321 296.566 110.714 297.252 108.164C295.965 107.932 293.55 109.346 292.38 109.889C290.127 110.936 288.165 111.966 285.665 112.625C280.316 114.032 274.716 114.192 269.446 115.719C261.426 118.045 252.874 119.39 245.029 122.728C235.996 126.569 228.219 133.327 221.873 140.621C218.598 144.386 215.993 148.006 213.759 152.475C213.18 153.632 212.493 157.511 211.603 158.319C210.47 159.347 207.479 158.265 206.191 158.052C206.191 161.475 206.262 164.903 206.14 168.32C206.009 171.927 206.66 177.46 205.412 180.787C204.242 183.911 202.057 183.264 199.744 181.711C196.669 179.647 195.092 178.463 192.336 181.661C187.541 187.224 185.727 195.866 182.439 202.378C181.361 204.51 178.705 208.976 177.253 204.592C176.195 201.397 177.95 197.322 177.13 194.166C176.009 196.136 172.658 201.994 170.007 201.978C166.36 201.956 167.55 196.288 167.672 193.978C165.521 196.275 159.209 203.781 157.681 197.764C156.507 193.147 159.783 188.564 162.109 184.929C164.816 180.697 167.477 176.402 170.286 172.244C173.034 168.175 174.874 163.564 177.66 159.469C175.536 159.763 171.425 159.069 172.731 155.779C173.415 154.059 175.576 154.782 176.631 153.714C177.73 152.602 178.321 149.445 178.936 147.987C181.967 140.806 186.313 134.902 191.338 129.063C200.217 118.745 211.555 110.507 222.985 103.597C236.604 95.3632 250.644 90.3565 265.894 86.3316C273.121 84.4254 280.449 83.5485 287.754 82.1748C290.787 81.6047 293.862 81.2833 296.262 79.361C299.839 76.494 302.198 74.3715 306.51 72.5418C309.994 71.0636 313.301 70.3816 317.101 69.7501C321.174 69.0724 325.848 69.9735 329.762 68.8232C333.014 67.8661 336.805 65.7882 339.759 64.1259C341.248 63.2889 343.883 62.8173 344.686 62.1051C346.237 60.7319 347.264 57.3072 348.254 55.463C345.804 56.1052 344.87 54.3632 344.214 52.2536C343.124 48.7449 343.113 49.9109 339.709 48.4419C337.693 47.5714 337.04 45.2487 335.442 44.424C333.729 43.539 331.01 45.4478 328.986 44.8272C327.345 44.3238 325.741 42.5587 325.831 40.6806C325.868 39.8963 326.694 39.2008 326.708 38.5624C326.744 37.0659 325.522 36.2393 325.7 34.599C325.977 32.0602 327.266 32.4892 326.172 29.738C325.082 26.9995 325.507 26.4595 325.834 23.621C325.925 22.8365 325.522 21.5727 326.07 20.9055C326.389 20.5157 327.558 20.4556 327.677 20.2586C328.123 19.523 328.137 18.9187 328.227 17.5697C328.278 16.8012 328.041 15.2643 328.84 14.6956C329.534 14.2017 330.519 15.1197 331.126 14.829C331.654 14.5768 332.11 13.3201 332.977 13.1684C336.177 12.6081 335.201 15.8658 336.834 11.7999C337.781 9.44485 338.508 8.48075 340.206 7.14155C340.944 7.48246 341.404 7.34482 341.588 6.72728C341.836 6.28086 342.085 5.83514 342.334 5.38943C343.658 5.07576 343.848 6.0685 344.874 5.0932C346.594 3.45637 344.824 -0.168735 348.299 0.801668C350.82 1.50518 351.433 4.73969 354.07 5.51657C354.434 4.46306 354.387 1.38358 355.918 1.07201C357.477 0.754836 358.664 3.59816 359.231 4.52663C359.6 3.72811 360.21 1.3368 360.818 0.752037C362.564 -0.92812 362.036 0.699659 363.581 0.923217C363.823 1.20755 364.066 1.49258 364.309 1.77761C365.117 1.38288 365.912 0.966551 366.696 0.525733C368.39 0.205064 367.786 0.380391 369.264 0.978394C370.445 1.45695 369.738 2.00397 371.174 2.30505C372.216 2.52231 373.099 1.43951 374.259 1.77132C374.596 1.91876 374.935 2.06685 375.272 2.21423C375.75 3.27545 376.484 3.46337 377.473 2.7773C378.64 3.25865 380.214 5.19311 381.457 5.12953C383.831 5.00588 383.272 1.73568 385.876 1.89566C386.841 1.95434 389.336 4.55177 390.025 5.32305C390.99 6.40521 390.717 7.33992 391.926 8.55692C393.678 10.3195 392.65 9.37428 394.322 10.1721C396.815 11.3618 397.734 10.912 398.76 13.7755C399.653 16.2661 400.154 19.3644 400.164 22.003C400.169 23.6496 398.986 27.2811 401.269 26.4846C402.873 25.9257 402.604 21.9499 404.323 23.197C405.631 24.1443 403.051 29.2099 403.021 30.3982C402.934 33.8172 403.48 34.0911 401.362 36.646C400.359 37.8561 398.059 40.0858 397.55 41.6533C396.947 43.5078 398.547 46.7193 398.916 48.3757C399.716 51.9705 399.041 52.73 396.668 55.555C396.413 55.7074 396.159 55.8603 395.904 56.0126C394.637 56.0099 394.285 56.6424 394.849 57.908C394.344 59.3199 394.405 60.6808 393.691 62.0998C393.301 62.8749 391.577 64.4451 391.489 65.2122C391.334 66.5801 392.013 66.8196 393.164 68.2375C397.803 73.9548 399.928 81.3641 402.224 88.2409C406.266 100.354 411.249 112.169 416.075 124.024C417.956 128.646 419.862 133.084 421.814 137.757C424.243 143.574 427.657 148.886 430.545 154.523C432.541 158.42 434.578 162.699 437.072 166.06C440.21 170.29 441.973 175.727 444.725 180.306C447.665 185.196 451.097 190.015 453.932 195.048C456.643 199.861 459.993 204.267 462.567 209.211C465.781 215.383 469.523 222.799 470.407 229.793C470.72 232.272 471.694 236.36 470.157 238.481C468.565 240.676 464.182 241.595 461.959 239.956C464.182 245.136 465.565 250.94 466.563 256.48C466.994 258.873 467.595 260.986 467.068 263.432C466.596 265.618 467.378 264.345 465.614 265.623C464.137 266.694 464.819 263.676 463.658 266.753C463.414 267.401 463.894 269.201 463.877 269.954C463.81 272.977 463.585 276.055 463.467 279.095C463.378 281.402 463.749 283.348 460.917 283.104C458.647 282.908 457.522 280.496 456.515 278.793C456.136 281.504 455.92 284.21 455.607 286.928C455.33 289.34 455.883 291.722 452.798 291.462C447.737 291.035 445.743 281.86 444.461 278.026C442.155 281.065 441.035 287.099 440.021 290.815C439.055 294.353 437.93 301.883 432.997 297.25C429.71 294.164 430.984 288.092 431.573 284.142C431.767 282.839 434.542 271.391 433.245 270.731C431.39 272.717 429.229 275.961 426.175 274.211C423.429 272.637 424.323 269.141 424.541 266.617C425.163 259.439 427.625 252.557 429.45 245.6C428.412 245.368 425.887 245.161 425.031 244.388C423.935 243.397 424.611 242.915 424.13 241.649C423.479 239.934 422.309 238.191 421.386 236.562C418.378 231.253 417.451 225.961 415.896 220.184C414.395 214.605 411.567 209.693 410.067 204.042C408.405 197.782 406.634 191.629 404.672 185.394C400.389 171.771 394.219 158.801 387.126 146.446C386.195 144.824 378.564 127.302 377.415 127.82C376.595 128.19 376.126 132.724 375.813 133.949C375.088 136.786 374.946 139.769 374.775 142.693C371.98 149.514 374.956 161.284 376.652 168.123Z" fill="#36392E"/>
<path fill-rule="evenodd" clip-rule="evenodd" d="M118.778 145.032C121.626 145.712 122.645 139.068 122.964 137.011C123.48 133.676 124.072 130.809 125.867 127.893C126.74 126.474 127.783 125.016 128.916 123.793C129.576 123.082 131.232 122.154 131.578 121.39C132.534 119.278 131.423 113.968 131.436 111.591C131.444 110.065 130.447 102.963 132.237 102.468C134.563 101.823 135.169 108.3 135.426 109.758C135.72 111.428 135.672 113.037 135.85 114.689C136.015 116.231 136.853 117.185 137.175 118.213C138.093 121.149 135.912 123.615 134.349 126.26C132.609 129.204 130.726 132.064 129.505 135.278C128.179 138.765 128.264 142.438 127.228 145.968C125.543 151.705 118.479 154.833 112.756 153.15C109.715 152.255 110.354 150.198 109.39 147.828C109.025 146.928 108 146.428 107.695 145.234C107.372 143.969 107.667 142.322 107.916 141.045C109.119 134.862 111.072 128.387 112.959 122.371C102.69 128.03 91.8154 131.759 79.9911 131.547C74.1137 131.441 69.8319 130.179 65.5749 135.204C62.2755 139.099 62.2798 145.948 60.9332 150.791C59.472 156.049 58.154 162.783 54.8271 167.182C50.8133 172.491 45.3334 171.618 44.9245 164.538C44.5754 158.502 47.5757 152.782 47.0721 146.655C46.8193 143.572 45.6062 140.855 45.6804 137.733C45.7449 135.05 46.2711 132.53 46.7671 129.888C40.894 130.6 36.3454 133.016 32.1728 137.068C28.266 140.861 26.637 145.545 23.4107 149.884C20.4669 153.843 17.862 159.29 12.0511 159.155C4.63377 158.982 4.16686 149.843 6.94827 144.959C8.36993 142.462 10.345 140.508 12.1521 138.309C14.1532 135.876 14.3893 133.921 14.802 130.811C15.1156 128.44 15.2017 125.308 17.3337 123.744C19.2511 122.337 21.658 123.022 23.4317 121.156C25.1285 119.373 26.4681 116.673 27.9922 114.701C29.8955 112.24 31.8656 109.696 33.5586 107.083C37.2008 101.458 41.9872 97.5441 47.0318 93.1429C45.2027 92.0022 40.3791 93.2629 38.1137 92.9017C34.3914 92.308 29.5744 90.5343 26.6902 87.9843C20.7041 82.6885 17.827 75.8003 17.5322 67.8399C17.2487 60.1938 18.4473 50.9721 24.1252 45.2898C27.0184 42.3937 30.7235 39.8588 34.3796 38.0119C36.8139 36.7829 41.8274 34.1019 44.6421 35.2089C51.1409 37.7669 36.4427 47.9398 34.5049 49.5677C28.33 54.7532 24.7341 59.7583 24.8778 68.0531C25.0166 76.1185 32.7823 79.9528 39.2774 82.6212C42.6462 84.0052 46.7155 85.1157 50.4786 85.0145C54.7432 84.9009 57.644 82.4495 61.5282 81.0117C69.174 78.1823 77.0183 76.28 84.8991 74.3738C92.66 72.4957 101.103 72.9199 109.05 71.6936C116.522 70.5406 123.503 69.1189 130.566 66.3999C137.879 63.584 143.52 55.1865 151.496 54.3031C156.443 53.7557 154.025 57.26 151.887 59.0574C149.33 61.208 146.553 63.0813 143.994 65.2383C137.474 70.7327 130.646 73.9647 122.383 76.0593C116.382 77.58 109.911 79.0027 103.533 79.9097C95.4806 81.0558 87.376 80.6978 79.4661 82.7848C74.783 84.0197 70.2349 85.5932 65.8164 87.6005C64.0067 88.4225 60.2634 89.7397 59.9283 91.2018C59.4936 93.0945 61.0069 93.0568 59.1826 94.8003C56.1091 97.7379 52.1119 99.8152 49.0078 102.863C45.5502 106.258 42.2615 109.552 39.4608 113.533C36.6827 117.483 34.4646 121.311 30.3507 124.035C28.9869 124.938 26.6714 126.522 25.1215 126.937C23.6953 127.319 23.0433 126.734 21.8226 127.528C18.5748 129.639 20.5207 136.233 19.6637 139.497C18.5673 143.678 15.7601 146.816 14.0122 150.694C16.4579 150.164 18.1649 146.112 19.4221 144.201C20.8316 142.057 22.6161 140.612 24.4092 138.759C28.1799 134.864 29.1779 129.537 33.6598 125.869C41.7784 119.226 54.3989 119.799 61.1731 110.894C62.2701 109.451 63.3008 105.282 64.6173 104.375C67.0285 102.713 66.8241 107.679 66.5761 109.153C65.7282 114.185 62.6268 120.132 58.572 123.308C56.7369 124.747 54.1702 125.405 52.5778 127.272C52.1878 127.426 51.7988 127.582 51.4083 127.737C51.6412 128.566 51.7682 129.409 51.787 130.265C51.8241 131.762 51.4615 133.221 51.4007 134.73C51.2496 138.529 52.0893 141.777 52.8495 145.416C53.3939 148.014 51.9296 153.433 53.0964 155.552C55.4017 147.81 58.1126 138.869 62.4804 131.989C63.5123 130.361 65.5593 129.018 66.3722 127.342C66.7579 126.912 67.1442 126.483 67.5304 126.053C66.8537 125.426 66.264 124.726 65.7616 123.954C63.1427 118.447 68.8808 121.852 71.1704 122.32C74.8507 123.072 79.437 121.527 83.2588 121.411C86.9833 121.298 90.656 121.174 94.2966 120.595C98.2281 119.971 102.307 119.028 106.153 117.996C110.015 116.959 113.583 114.826 117.337 113.889C113.584 111.323 112.397 107.982 111.098 103.809C110.246 101.066 107.215 94.409 109.122 91.6249C111.19 88.605 111.928 93.249 112.598 94.894C113.733 97.6749 115.45 102.421 117.552 104.507C118.685 105.632 120.215 105.509 121.228 107.01C121.972 108.114 122.074 109.639 122.19 110.919C122.535 114.699 121.041 117.724 119.71 121.165C116.603 129.187 115.348 137.767 111.285 145.399C113.756 145.636 116.314 145.281 118.778 145.032Z" fill="#36392E"/>
<path fill-rule="evenodd" clip-rule="evenodd" d="M170.755 81.825C172.737 81.3583 178.977 80.6773 177.166 77.04C175.335 73.3612 170.459 79.3106 170.755 81.825ZM229.82 52.861C228.655 52.4992 226.808 51.6568 225.561 51.7461C224.084 51.8522 222.986 52.9234 221.487 53.065C218.429 53.354 216.064 52.0481 214.065 55.3162C218.318 55.3162 226.823 56.7583 229.82 52.861ZM149.602 129.073C153.649 129.638 155.659 111.755 155.873 109.413C154.059 109.227 149.166 112.793 148.739 114.436C148.271 116.241 149.885 119.137 150.081 121.013C150.371 123.79 150.063 126.338 149.602 129.073ZM172.151 26.9973C167.279 27.4721 161.828 29.05 157.356 26.3388C153.731 24.1416 152.388 19.5055 149.335 16.7839C149.335 24.6331 156.389 30.8178 163.566 33.3084C167.221 34.5763 172.821 32.6639 176.05 34.7306C176.987 35.3297 178.983 38.0592 179.056 39.1864C179.307 43.0293 176.569 39.5901 175.018 39.7091C172.863 39.8738 169.864 45.5572 168.068 47.2852C166.717 48.5852 165.192 49.6403 163.665 50.7573C163.162 51.126 160.577 52.4346 160.448 53.0671C160.335 53.6286 161.752 55.6914 162.051 56.2237C164.106 59.888 166.582 62.5138 169.83 65.0988C171.43 66.3724 173.098 67.0813 174.702 68.1391C175.226 68.4858 177.355 71.3867 176.736 71.2645C177.631 68.5466 180.178 65.3981 181.872 62.9951C183.609 60.5307 185.899 57.9495 188.811 56.9521C190.09 56.5133 192.208 56.1371 193.54 56.0294C194.475 55.9966 195.401 56.0736 196.318 56.2598C197.653 56.8493 198.176 56.375 197.885 54.8355C199.287 51.9211 198.461 48.252 200.244 45.2918C202.337 41.816 205.761 40.2415 209.683 40.6334C211.445 40.8094 213.344 41.5662 215.09 41.2572C216.819 40.9515 218.78 39.5551 220.472 38.9533C227.046 36.6144 235.159 33.772 240.313 28.8992C241.096 28.1605 243.305 26.1105 243.478 25.0486C243.018 24.0124 242.559 22.9776 242.1 21.9422C241.978 20.4243 241.241 20.0102 239.886 20.7008C238.289 20.6673 235.262 22.5001 233.664 23.0244C231.635 23.6905 229.595 24.2763 227.599 25.0283C224.135 26.3333 220.763 27.6738 217.126 28.4502C213.36 29.2532 211.567 29.7426 209.585 26.1727C207.647 22.683 207.922 20.6422 203.411 21.1525C199.39 21.6064 196.02 23.1243 192.313 24.726C189.851 25.7894 186.644 27.7478 184.14 28.1674C182.285 28.4789 180.282 27.7555 178.494 27.3827C176.236 26.9128 174.447 26.9952 172.151 26.9973ZM218.857 47.2642H220.883C219.312 46.341 217.742 45.4173 216.172 44.4946C213.962 48.0636 208.438 46.5116 205.089 48.6385C202.339 50.3853 199.757 57.8295 202.397 60.5409C206.067 64.3091 207.874 55.9476 208.916 54.0215C211.036 50.1011 214.229 47.1651 218.857 47.2642ZM154.67 55.2553C153.027 52.1525 154.104 49.1865 156.542 47.5398C160.061 45.1653 163.602 42.5637 167.052 39.933C161.188 39.0125 156.986 37.0725 152.205 33.4941C146.689 29.3649 145.12 25.5492 145.274 18.5747C145.351 15.0739 144.862 5.12374 150.51 8.01224C155.175 10.3987 155.819 17.0722 160.838 19.3344C165.797 21.5687 171.638 19.2513 176.853 20.9913C178.337 21.487 182.307 24.9738 183.514 24.9578C185.116 24.9355 189.14 21.3927 190.655 20.5514C194.455 18.4414 199.372 16.3837 203.606 15.7756C206.265 15.3937 207.131 15.12 209.058 17.0813C211.216 19.2771 211.893 21.9918 212.663 24.8447C220.85 21.4716 229.121 18.3234 237.54 15.5732C240.213 14.6997 242.049 13.5826 244.33 12.1749C247.596 10.1599 249.413 11.0927 250.007 15.259C251.053 22.5985 246.57 27.2926 242.675 32.7861C240.526 35.8156 239.059 37.9558 235.567 39.5029C231.932 41.113 227.556 40.5941 223.608 41.8042C224.621 43.0385 225.156 45.913 226.048 46.7808C226.774 47.486 230.246 47.3692 231.417 47.985C234.927 49.8308 234.51 52.9121 232.335 55.9589C229.881 59.3954 226.255 60.029 222.291 60.3283C220.517 60.4618 218.936 60.486 217.16 60.3606C216.011 60.2793 212.011 59.0375 211.145 59.4057C210.12 59.8406 209.882 62.1047 209.415 63.1388C208.672 64.7822 207.847 66.4456 206.101 67.2052C204.589 67.8614 202.886 67.6843 201.512 66.7826C199.67 65.5757 200.175 64.1503 199.015 62.6005C198.906 60.9678 198.211 60.6588 196.929 61.6708C195.949 62.0137 194.972 62.3604 193.996 62.7098C191.976 63.4462 190.09 64.1562 188.313 65.3927C184.908 67.7602 182.846 71.7544 179.052 73.4193C181.528 77.6531 179.982 83.4135 175.816 85.612C174.876 86.1072 173.726 86.716 172.728 87.0368C171.985 87.2764 170.039 87.0826 169.537 87.4976C168.809 88.1005 168.409 93.8039 167.9 95.0748C166.148 99.4442 162.428 101.618 160.227 105.581C158.079 109.449 158.54 115.451 157.915 119.808C157.141 125.203 156.649 130.867 154.34 135.874C152.795 139.224 148.161 143.196 144.069 142.535C138.053 141.564 140.668 133.873 142.514 130.559C145.36 125.447 145.356 121.578 144.634 115.923C142.259 116.276 136.374 118.602 136.657 114.073C136.85 110.983 143.515 108.152 145.851 106.6C151.131 103.094 156.535 99.0136 160.994 94.5204C162.837 92.6632 165.475 89.2337 166.413 86.6934C167.096 84.84 166.95 83.0372 167.098 81.0988C167.234 79.3149 168.799 76.865 168.721 75.3056C168.607 72.993 162.521 69.2981 160.781 66.8499C158.302 63.3617 156.218 59.2366 154.67 55.2553Z" fill="#36392E"/>
<path fill-rule="evenodd" clip-rule="evenodd" d="M276.555 63.0202C278.421 62.7763 285.589 60.7889 286.82 62.6493C289.066 66.0427 282.464 66.6747 280.804 66.9826C273.468 68.3397 266.291 70.1452 259.177 72.1676C245.026 76.1893 230.598 81.2369 217.417 87.7892C215.353 88.8152 209.288 92.9908 207.222 90.8812C204.553 88.1569 211.028 85.1337 212.512 84.2848C219.086 80.5215 226.032 77.1458 233.088 74.3746C246.986 68.9168 261.67 64.6625 276.555 63.0202Z" fill="#36392E"/>
<path fill-rule="evenodd" clip-rule="evenodd" d="M99.6768 242.16C110.204 240.589 121.641 242.907 131.858 246.105C135.131 247.13 138.543 248.32 141.539 249.99C143.154 250.888 146.992 252.489 147.905 254.17C149.429 256.974 147.723 258.169 145.271 257.708C142.94 257.27 140.075 255.928 137.641 255.316C126.498 252.509 115.421 250.404 104.135 249.28C101.434 249.011 99.4735 249.325 96.8707 249.799C94.9254 250.154 89.7893 252.269 88.3271 251.029C83.042 246.547 97.1612 242.438 99.6768 242.16Z" fill="#36392E"/>
<path fill-rule="evenodd" clip-rule="evenodd" d="M263.468 263.726C264.181 267.722 262.15 268.095 258.757 269.962C255.291 271.87 251.829 273.437 248.169 274.977C244.225 276.636 240.092 278.337 235.983 279.548C232.503 280.574 227.136 282.874 223.522 282.533C222.064 282.395 221.121 282.586 221.11 280.777C221.1 278.816 222.943 278.934 224.463 278.5C229.118 277.175 233.625 275.185 238.202 273.606C246.822 270.635 255.457 268.126 263.468 263.726Z" fill="#36392E"/>
<path fill-rule="evenodd" clip-rule="evenodd" d="M2.33984 68.3103C-0.359846 63.851 -0.305561 57.9065 0.441478 52.8679C0.693198 51.1696 4.78851 38.6136 7.2629 41.2238C8.73045 42.772 3.73483 52.6327 3.2117 54.886C2.5807 57.6029 2.2564 60.2901 2.67232 63.0672C2.78562 63.8176 4.46621 68.5821 2.33984 68.3103Z" fill="#36392E"/>
<path fill-rule="evenodd" clip-rule="evenodd" d="M143.821 93.6218C141.844 90.9163 144.491 84.863 145.291 81.9869C145.785 80.2148 147.293 73.5575 149.683 74.9787C152.004 76.3578 149.406 82.5973 148.941 84.3204C148.252 86.8763 147.25 93.5572 143.821 93.6218Z" fill="#36392E"/>
<path fill-rule="evenodd" clip-rule="evenodd" d="M363.136 237.791C363.499 236.926 363.863 236.061 364.226 235.196C365.149 235.898 366.438 236.243 365.499 237.308C364.921 237.963 363.948 237.962 363.136 237.791Z" fill="#36392E"/>
<path fill-rule="evenodd" clip-rule="evenodd" d="M329.781 69.0088C328.163 69.2569 327.082 69.2704 325.478 69.2327C326.913 69.1579 328.347 69.0836 329.781 69.0088Z" fill="#36392E"/>
<path fill-rule="evenodd" clip-rule="evenodd" d="M382.24 194.823C382.236 193.746 382.232 192.669 382.229 191.593C382.232 192.671 382.236 193.747 382.24 194.823Z" fill="#36392E"/>
<path fill-rule="evenodd" clip-rule="evenodd" d="M121.858 114.077C121.854 113 121.851 111.923 121.848 110.848C121.851 111.925 121.855 113.001 121.858 114.077Z" fill="#36392E"/>
<path fill-rule="evenodd" clip-rule="evenodd" d="M172.154 19.7419C171.078 19.7349 170.001 19.729 168.926 19.722C170.007 19.2844 171.08 19.4949 172.154 19.7419Z" fill="#36392E"/>
<path fill-rule="evenodd" clip-rule="evenodd" d="M179.437 351.47C179.424 352.188 179.41 352.906 179.395 353.623C179.409 352.904 179.423 352.186 179.437 351.47Z" fill="#36392E"/>
<path fill-rule="evenodd" clip-rule="evenodd" d="M43.5764 93.3438C44.1165 93.3497 44.6555 93.3551 45.1903 93.3621C44.6491 93.3567 44.1127 93.3502 43.5764 93.3438Z" fill="#36392E"/>
<path fill-rule="evenodd" clip-rule="evenodd" d="M347.279 283.643C347.27 282.924 347.262 282.206 347.252 281.49C347.261 282.21 347.27 282.927 347.279 283.643Z" fill="#36392E"/>
<path fill-rule="evenodd" clip-rule="evenodd" d="M374.652 142.607C374.686 141.889 374.72 141.17 374.753 140.454C374.72 141.174 374.686 141.89 374.652 142.607Z" fill="#36392E"/>
<path fill-rule="evenodd" clip-rule="evenodd" d="M325.805 33.8701C325.767 34.5885 325.728 35.3075 325.688 36.0233C325.727 35.3043 325.766 34.5878 325.805 33.8701Z" fill="#36392E"/>
<path fill-rule="evenodd" clip-rule="evenodd" d="M463.998 270.186C464.005 269.467 464.012 268.749 464.019 268.033C464.011 268.752 464.005 269.469 463.998 270.186Z" fill="#36392E"/>
<path fill-rule="evenodd" clip-rule="evenodd" d="M249.922 22.0272C249.902 21.3082 249.882 20.5892 249.861 19.874C249.881 20.5938 249.902 21.3105 249.922 22.0272Z" fill="#36392E"/>
<path fill-rule="evenodd" clip-rule="evenodd" d="M24.9705 68.3217C25.0011 67.603 25.0312 66.8844 25.0619 66.1685C25.0307 66.8882 25.0011 67.6052 24.9705 68.3217Z" fill="#36392E"/>
<path fill-rule="evenodd" clip-rule="evenodd" d="M218.958 60.5197C219.498 60.5171 220.037 60.5149 220.572 60.5122C220.029 60.5149 219.494 60.5171 218.958 60.5197Z" fill="#36392E"/>
<path fill-rule="evenodd" clip-rule="evenodd" d="M400.041 24.1806C400.006 23.4616 399.97 22.7441 399.935 22.0273C399.97 22.7463 400.006 23.4631 400.041 24.1806Z" fill="#36392E"/>
<path fill-rule="evenodd" clip-rule="evenodd" d="M45.4582 135.609C45.4593 136.329 45.4604 137.047 45.4604 137.763C45.4593 137.043 45.4588 136.326 45.4582 135.609Z" fill="#36392E"/>
<path fill-rule="evenodd" clip-rule="evenodd" d="M467.301 260.496C467.257 259.778 467.213 259.06 467.17 258.343C467.213 259.062 467.258 259.779 467.301 260.496Z" fill="#36392E"/>
<path fill-rule="evenodd" clip-rule="evenodd" d="M199.59 254.87C200.13 254.853 200.67 254.836 201.204 254.818C200.663 254.836 200.127 254.854 199.59 254.87Z" fill="#36392E"/>
<path fill-rule="evenodd" clip-rule="evenodd" d="M374.767 157.142C374.724 156.423 374.682 155.705 374.64 154.989C374.682 155.707 374.724 156.425 374.767 157.142Z" fill="#36392E"/>
<path fill-rule="evenodd" clip-rule="evenodd" d="M116.741 241.918C116.024 241.923 115.307 241.928 114.59 241.932C115.307 241.928 116.024 241.923 116.741 241.918Z" fill="#36392E"/>
<path fill-rule="evenodd" clip-rule="evenodd" d="M99.5262 241.824C98.8086 241.891 98.0915 241.959 97.3743 242.026C98.092 241.958 98.8091 241.891 99.5262 241.824Z" fill="#36392E"/>
<path fill-rule="evenodd" clip-rule="evenodd" d="M374.188 152.297C374.173 151.758 374.156 151.219 374.141 150.682C374.157 151.221 374.173 151.759 374.188 152.297Z" fill="#36392E"/>
<path fill-rule="evenodd" clip-rule="evenodd" d="M398.419 47.3278C398.389 46.7884 398.359 46.2501 398.329 45.7129C398.36 46.2523 398.389 46.79 398.419 47.3278Z" fill="#36392E"/>
<path fill-rule="evenodd" clip-rule="evenodd" d="M233.746 52.1725C233.75 51.6337 233.754 51.0959 233.759 50.5576C233.755 51.097 233.751 51.6342 233.746 52.1725Z" fill="#36392E"/>
<path fill-rule="evenodd" clip-rule="evenodd" d="M158.891 200.325C159.187 200.342 159.483 200.359 159.78 200.376C159.117 200.949 158.34 200.36 158.891 200.325Z" fill="#36392E"/>
<path fill-rule="evenodd" clip-rule="evenodd" d="M191.521 254.315C191.881 254.309 192.241 254.302 192.597 254.296C192.235 254.303 191.878 254.309 191.521 254.315Z" fill="#36392E"/>
<path fill-rule="evenodd" clip-rule="evenodd" d="M466.758 256.19C466.718 255.651 466.677 255.113 466.637 254.575C466.678 255.115 466.718 255.652 466.758 256.19Z" fill="#36392E"/>
<path fill-rule="evenodd" clip-rule="evenodd" d="M47.1413 150.144C47.0956 150.683 47.0498 151.222 47.0046 151.759C47.0504 151.22 47.0961 150.681 47.1413 150.144Z" fill="#36392E"/>
<path fill-rule="evenodd" clip-rule="evenodd" d="M293.737 80.8296C293.093 81.3092 292.316 81.0411 291.585 81.0245C292.303 80.9593 293.02 80.8947 293.737 80.8296Z" fill="#36392E"/>
<path fill-rule="evenodd" clip-rule="evenodd" d="M463.457 277.184C463.466 276.644 463.474 276.106 463.482 275.569C463.474 276.109 463.466 276.647 463.457 277.184Z" fill="#36392E"/>
<path fill-rule="evenodd" clip-rule="evenodd" d="M341.823 297.101C341.865 296.562 341.907 296.023 341.95 295.486C341.907 296.027 341.865 296.564 341.823 297.101Z" fill="#36392E"/>
<path fill-rule="evenodd" clip-rule="evenodd" d="M37.6587 92.7832C38.0191 92.8042 38.379 92.8241 38.7347 92.8456C38.3737 92.8257 38.0159 92.8042 37.6587 92.7832Z" fill="#36392E"/>
<path fill-rule="evenodd" clip-rule="evenodd" d="M276.522 63.1206C275.804 63.1787 275.087 63.2369 274.37 63.295C275.087 63.2369 275.804 63.1787 276.522 63.1206Z" fill="#36392E"/>
<path fill-rule="evenodd" clip-rule="evenodd" d="M224.678 348.778C224.63 349.317 224.582 349.856 224.534 350.393C224.582 349.853 224.63 349.316 224.678 348.778Z" fill="#36392E"/>
<path fill-rule="evenodd" clip-rule="evenodd" d="M118.893 144.949C118.176 145.003 117.459 145.056 116.741 145.111C117.459 145.056 118.176 145.003 118.893 144.949Z" fill="#36392E"/>
<path fill-rule="evenodd" clip-rule="evenodd" d="M209.274 327.601C210.708 327.544 212.143 327.487 213.578 327.43C212.144 327.487 210.708 327.544 209.274 327.601Z" fill="#36392E"/>
<path fill-rule="evenodd" clip-rule="evenodd" d="M340.219 277.184C340.254 276.286 340.29 275.388 340.325 274.492C340.29 275.39 340.254 276.287 340.219 277.184Z" fill="#36392E"/>
<path fill-rule="evenodd" clip-rule="evenodd" d="M369.054 34.2369C369.95 34.1718 370.846 34.1066 371.744 34.0415C370.847 34.1066 369.95 34.1718 369.054 34.2369Z" fill="#36392E"/>
<path fill-rule="evenodd" clip-rule="evenodd" d="M112.976 217.077C113.873 217.134 114.769 217.192 115.666 217.249C114.769 217.191 113.872 217.134 112.976 217.077Z" fill="#36392E"/>
<path fill-rule="evenodd" clip-rule="evenodd" d="M176.753 196.438C176.374 195.63 176.395 194.913 176.814 194.285C177.039 195.018 177.019 195.735 176.753 196.438Z" fill="#36392E"/>
<path fill-rule="evenodd" clip-rule="evenodd" d="M434.406 247.577C434.414 248.297 434.422 249.016 434.431 249.73C434.423 249.01 434.415 248.294 434.406 247.577Z" fill="#36392E"/>
<path fill-rule="evenodd" clip-rule="evenodd" d="M218.701 318.095C218.693 317.376 218.685 316.657 218.676 315.942C218.685 316.663 218.693 317.379 218.701 318.095Z" fill="#36392E"/>
<path fill-rule="evenodd" clip-rule="evenodd" d="M193.135 246.141C193.852 246.201 194.569 246.261 195.287 246.322C194.569 246.261 193.852 246.2 193.135 246.141Z" fill="#36392E"/>
<path fill-rule="evenodd" clip-rule="evenodd" d="M179.72 199.086C179.608 198.221 179.765 197.9 180.188 198.121C180.3 198.934 180.144 199.256 179.72 199.086Z" fill="#36392E"/>
<path fill-rule="evenodd" clip-rule="evenodd" d="M206.326 162.525C206.319 163.064 206.312 163.603 206.305 164.14C206.313 163.6 206.319 163.063 206.326 162.525Z" fill="#36392E"/>
<path fill-rule="evenodd" clip-rule="evenodd" d="M453.255 264.803C453.25 264.264 453.245 263.725 453.242 263.188C453.245 263.727 453.25 264.265 453.255 264.803Z" fill="#36392E"/>
<path fill-rule="evenodd" clip-rule="evenodd" d="M376.048 34.141C376.765 34.1399 377.483 34.1388 378.2 34.1372C377.482 34.1383 376.765 34.1399 376.048 34.141Z" fill="#36392E"/>
<path fill-rule="evenodd" clip-rule="evenodd" d="M358.294 99.8989L360.446 99.7256L358.294 99.8989Z" fill="#36392E"/>
<path fill-rule="evenodd" clip-rule="evenodd" d="M324.402 190.256C324.042 190.25 323.681 190.244 323.326 190.239C323.687 190.245 324.044 190.251 324.402 190.256Z" fill="#36392E"/>
<path fill-rule="evenodd" clip-rule="evenodd" d="M336.995 292.795C337.028 292.256 337.06 291.717 337.093 291.18C337.06 291.72 337.027 292.257 336.995 292.795Z" fill="#36392E"/>
<path fill-rule="evenodd" clip-rule="evenodd" d="M253.927 301.118C253.566 301.132 253.206 301.146 252.851 301.159C253.212 301.145 253.569 301.131 253.927 301.118Z" fill="#36392E"/>
<path fill-rule="evenodd" clip-rule="evenodd" d="M206.309 164.678C206.313 165.217 206.317 165.758 206.321 166.293C206.318 165.753 206.314 165.215 206.309 164.678Z" fill="#36392E"/>
<path fill-rule="evenodd" clip-rule="evenodd" d="M173.767 26.6025C173.228 26.6031 172.688 26.6036 172.154 26.6036C172.695 26.6036 173.232 26.6031 173.767 26.6025Z" fill="#36392E"/>
<path fill-rule="evenodd" clip-rule="evenodd" d="M176.326 69.3979C177.086 69.8927 177.199 70.4315 176.663 71.0129C175.8 70.945 175.689 70.4073 176.326 69.3979Z" fill="#36392E"/>
<path fill-rule="evenodd" clip-rule="evenodd" d="M216.806 47.0425C217.523 47.0532 218.241 47.064 218.958 47.0748C218.241 47.064 217.522 47.0532 216.806 47.0425Z" fill="#36392E"/>
<path fill-rule="evenodd" clip-rule="evenodd" d="M201.476 55.9404C201.474 56.4793 201.472 57.0181 201.471 57.5553C201.472 57.0149 201.474 56.4782 201.476 55.9404Z" fill="#36392E"/>
<path fill-rule="evenodd" clip-rule="evenodd" d="M188.293 56.8428L190.445 56.6533L188.293 56.8428Z" fill="#36392E"/>
<path fill-rule="evenodd" clip-rule="evenodd" d="M285.58 155.745C280.309 156.325 273.606 155.821 268.844 153.254C265.543 151.473 264.013 145.64 268.807 144.819C271.498 144.359 274.728 146.731 277.108 147.648C279.94 148.738 282.896 149.251 285.812 150.015C287.792 150.533 290.668 151.843 288.86 154.674C288.534 155.185 285.617 156.726 285.58 155.745Z" fill="#36392E"/>
<path fill-rule="evenodd" clip-rule="evenodd" d="M359.908 181.693C359.392 185.079 359.314 188.819 357.691 191.913C355.35 196.375 354.888 191.595 355.258 189.144C355.801 185.53 356.096 181.83 355.825 178.177C355.603 175.184 353.59 171.679 355.064 168.984C359.086 171.592 359.168 177.421 359.908 181.693Z" fill="#36392E"/>
<path fill-rule="evenodd" clip-rule="evenodd" d="M360.092 76.3831C357.867 75.8734 354.227 74.4016 357.363 72.3254C358.638 71.4813 361.148 71.8861 362.571 71.0959C363.433 70.6174 363.921 69.5924 364.785 69.221C367.648 67.9888 367.941 70.0925 366.864 72.7684C365.724 75.5983 362.987 76.5204 360.092 76.3831Z" fill="#36392E"/>
<path fill-rule="evenodd" clip-rule="evenodd" d="M358.804 58.5666C362.461 55.832 361.964 59.2487 360.031 61.6554C359.313 62.4666 358.593 63.2773 357.872 64.0869L358.504 64.861C358.395 65.9619 359.424 66.7763 358.163 67.4971C356.083 68.6878 354.519 65.8736 354.529 64.3152C354.543 61.7297 357.089 60.1083 358.804 58.5666Z" fill="#36392E"/>
<path fill-rule="evenodd" clip-rule="evenodd" d="M358.334 58.7871C354.92 62.1353 355.048 55.3942 356.862 53.9407C360.345 51.1512 358.101 57.6227 358.334 58.7871Z" fill="#36392E"/>
<path fill-rule="evenodd" clip-rule="evenodd" d="M364.859 61.3197C364.616 60.1322 364.585 54.5075 366.948 54.8816C369.519 55.2886 366.688 61.4968 364.859 61.3197Z" fill="#36392E"/>
<path fill-rule="evenodd" clip-rule="evenodd" d="M360.446 76.6426C360.807 76.6577 361.167 76.6733 361.522 76.6878C361.161 76.6733 360.804 76.6577 360.446 76.6426Z" fill="#36392E"/>
<path fill-rule="evenodd" clip-rule="evenodd" d="M196.545 34.4085C193.633 29.4459 200.278 20.9722 203.604 27.8305C204.056 28.7594 205.077 31.2629 203.848 32.033C202.528 32.8596 202.811 31.6583 201.725 31.4774C200.431 31.2615 200.854 30.6572 199.35 31.3136C198.282 31.7798 197.283 33.5525 196.545 34.4085Z" fill="#36392E"/>
</svg>
